<svg width="40" height="40" viewBox="0 0 40 40" fill="none" xmlns="http://www.w3.org/2000/svg">
<path d="M26.7901 28.1C25.5901 29.1267 23.1951 29.825 20.4368 29.825C17.0501 29.825 14.2118 28.7717 13.4584 27.3533C13.1901 28.1667 13.1284 29.0967 13.1284 29.69C13.1284 29.69 12.9518 32.6067 14.9801 34.6367C14.9801 33.5833 15.8351 32.7283 16.8884 32.7283C18.6934 32.7283 18.6918 34.3033 18.6901 35.5817V35.6967C18.6901 37.6367 19.8751 39.2983 21.5618 40C21.3021 39.4656 21.1676 38.8791 21.1684 38.285C21.1684 36.435 22.2551 35.7467 23.5184 34.9467C24.5218 34.3083 25.6384 33.6017 26.4068 32.18C26.8211 31.4155 27.0376 30.5595 27.0368 29.69C27.037 29.1505 26.9538 28.6141 26.7901 28.1ZM25.9184 1C26.2451 1.40667 26.4118 1.95333 26.7451 3.04833L34.0251 26.96C31.2907 25.541 28.3558 24.5474 25.3218 24.0133L20.5834 8C20.5455 7.87228 20.4673 7.76027 20.3604 7.68074C20.2535 7.6012 20.1237 7.55842 19.9905 7.5588C19.8573 7.55917 19.7278 7.60268 19.6213 7.68282C19.5149 7.76295 19.4373 7.8754 19.4001 8.00333L14.7168 24.0083C11.6692 24.5401 8.72117 25.5355 5.9751 26.96L13.2901 3.045C13.6234 1.95167 13.7901 1.405 14.1184 1C14.4069 0.642388 14.7821 0.364664 15.2084 0.193333C15.6918 0 16.2618 0 17.4051 0H22.6301C23.7734 0 24.3468 0 24.8301 0.195C25.255 0.366419 25.6307 0.643508 25.9184 1Z" fill="#FF5D01"/>
</svg>
