<svg width="3624" height="900" viewBox="0 0 3624 900" fill="none" xmlns="http://www.w3.org/2000/svg">
<circle cx="450" cy="450" r="450" fill="white"/>
<path d="M666.772 295.183C630.913 289.863 614.724 309.549 611.112 320.058L598.305 255.777C601.26 265.628 618.09 270.061 626.135 271.046C654.507 269.273 665.048 286.398 666.772 295.183Z" fill="#FF8402"/>
<path d="M615.3 750.568H472.207L542.645 723.969C593.873 722.393 612.426 741.045 615.3 750.568Z" fill="#FF8402"/>
<path d="M556.281 257.255C584.259 312.423 567.938 398.295 556.281 434.335C627.999 376.605 617.688 287.63 603.568 250.359C554.507 151.647 463.594 143.224 424.271 151.351C332.652 167.114 297.105 253.15 290.783 294.198C282.705 375.177 335.854 428.096 363.438 444.433C397.327 470.835 453.579 475.793 477.469 474.972C558.842 494.478 572.946 565.36 569.826 598.362C556.822 696.68 473.61 710.751 433.63 705.497C358.758 693.675 337.742 625.864 336.593 593.436V506H314.501H290.783V573.241C288.616 654.614 333.883 705.168 356.788 720.274C439.344 777.413 518.763 744.082 548.153 720.274C625.783 671.214 620.561 582.107 608.247 543.686C578.693 450.885 496.104 427.685 458.505 427.685C380.284 429.261 346.772 368.084 339.794 337.298C321.274 259.668 378.872 215.632 409.986 203.318C488.207 173.763 540.108 226.961 556.281 257.255Z" fill="black"/>
<circle cx="313.106" cy="458.963" r="26.1064" fill="black"/>
<circle cx="477.132" cy="276.219" r="29.0618" fill="black"/>
<mask id="path-7-outside-1" maskUnits="userSpaceOnUse" x="1025" y="254" width="2599" height="613" fill="black">
<rect fill="white" x="1025" y="254" width="2599" height="613"/>
<path d="M1058.2 724.6C1049.4 724.6 1042 721.6 1036 715.6C1030 709.6 1027 702.2 1027 693.4V287.2C1027 278 1030 270.6 1036 265C1042 259 1049.4 256 1058.2 256H1201.6C1228.8 256 1252.6 261.4 1273 272.2C1293.8 282.6 1310 297.2 1321.6 316C1333.6 334.8 1339.6 356.4 1339.6 380.8C1339.6 400.4 1334.2 418.2 1323.4 434.2C1313 449.8 1298.6 462.2 1280.2 471.4C1306.6 477.8 1327.8 490.4 1343.8 509.2C1359.8 528 1367.8 552.6 1367.8 583C1367.8 610.6 1361.2 635 1348 656.2C1335.2 677.4 1317.2 694.2 1294 706.6C1270.8 718.6 1244.2 724.6 1214.2 724.6H1058.2ZM1089.4 448.6H1201.6C1224.4 448.6 1243 443 1257.4 431.8C1272.2 420.6 1279.6 403.6 1279.6 380.8C1279.6 358 1272.2 341.2 1257.4 330.4C1243 319.2 1224.4 313.6 1201.6 313.6H1089.4V448.6ZM1089.4 667H1214.2C1241.4 667 1263.8 660 1281.4 646C1299 631.6 1307.8 610.6 1307.8 583C1307.8 557.4 1299 538.2 1281.4 525.4C1263.8 512.6 1241.4 506.2 1214.2 506.2H1089.4V667Z"/>
<path d="M1445.4 724.6C1436.6 724.6 1429.2 721.8 1423.2 716.2C1417.6 710.2 1414.8 702.8 1414.8 694V427C1414.8 417.8 1417.6 410.4 1423.2 404.8C1429.2 399.2 1436.6 396.4 1445.4 396.4C1454.6 396.4 1462 399.2 1467.6 404.8C1473.2 410.4 1476 417.8 1476 427V694C1476 702.8 1473.2 710.2 1467.6 716.2C1462 721.8 1454.6 724.6 1445.4 724.6ZM1445.4 343C1434.6 343 1425.2 339.2 1417.2 331.6C1409.6 323.6 1405.8 314.2 1405.8 303.4C1405.8 292.6 1409.6 283.4 1417.2 275.8C1425.2 267.8 1434.6 263.8 1445.4 263.8C1456.2 263.8 1465.4 267.8 1473 275.8C1481 283.4 1485 292.6 1485 303.4C1485 314.2 1481 323.6 1473 331.6C1465.4 339.2 1456.2 343 1445.4 343Z"/>
<path d="M1701 727C1667.8 727 1638.2 720 1612.2 706C1586.6 691.6 1566.4 672 1551.6 647.2C1537.2 622 1530 593.2 1530 560.8C1530 528 1536.8 499.2 1550.4 474.4C1564.4 449.2 1583.6 429.6 1608 415.6C1632.4 401.2 1660.4 394 1692 394C1723.2 394 1750 401 1772.4 415C1794.8 428.6 1811.8 447.6 1823.4 472C1835.4 496 1841.4 523.8 1841.4 555.4C1841.4 563 1838.8 569.4 1833.6 574.6C1828.4 579.4 1821.8 581.8 1813.8 581.8H1585.8C1590.2 609.4 1602.8 632 1623.6 649.6C1644.8 666.8 1670.6 675.4 1701 675.4C1713.4 675.4 1726 673.2 1738.8 668.8C1752 664 1762.6 658.6 1770.6 652.6C1776.6 648.2 1783 646 1789.8 646C1797 645.6 1803.2 647.6 1808.4 652C1815.2 658 1818.8 664.6 1819.2 671.8C1819.6 679 1816.4 685.2 1809.6 690.4C1796 701.2 1779 710 1758.6 716.8C1738.6 723.6 1719.4 727 1701 727ZM1692 445.6C1662.4 445.6 1638.6 453.8 1620.6 470.2C1602.6 486.6 1591.2 507.8 1586.4 533.8H1786.2C1782.6 508.2 1772.8 487.2 1756.8 470.8C1740.8 454 1719.2 445.6 1692 445.6Z"/>
<path d="M1921.1 725.2C1912.3 725.2 1904.9 722.4 1898.9 716.8C1893.3 710.8 1890.5 703.4 1890.5 694.6V427C1890.5 417.8 1893.3 410.4 1898.9 404.8C1904.9 399.2 1912.3 396.4 1921.1 396.4C1930.3 396.4 1937.7 399.2 1943.3 404.8C1948.9 410.4 1951.7 417.8 1951.7 427V433.6C1964.1 421.2 1979.1 411.4 1996.7 404.2C2014.3 397 2033.3 393.4 2053.7 393.4C2081.3 393.4 2105.9 399.4 2127.5 411.4C2149.5 423 2166.7 440.2 2179.1 463C2191.9 485.8 2198.3 513.8 2198.3 547V694.6C2198.3 703.4 2195.3 710.8 2189.3 716.8C2183.7 722.4 2176.5 725.2 2167.7 725.2C2158.9 725.2 2151.5 722.4 2145.5 716.8C2139.9 710.8 2137.1 703.4 2137.1 694.6V547C2137.1 513 2127.9 488.2 2109.5 472.6C2091.5 456.6 2068.9 448.6 2041.7 448.6C2024.9 448.6 2009.7 452 1996.1 458.8C1982.5 465.6 1971.7 474.8 1963.7 486.4C1955.7 497.6 1951.7 510.6 1951.7 525.4V694.6C1951.7 703.4 1948.9 710.8 1943.3 716.8C1937.7 722.4 1930.3 725.2 1921.1 725.2Z"/>
<path d="M2421.9 727C2389.9 727 2361.3 719.8 2336.1 705.4C2311.3 690.6 2291.7 670.8 2277.3 646C2263.3 620.8 2256.3 592.4 2256.3 560.8C2256.3 528.4 2263.3 499.6 2277.3 474.4C2291.3 449.2 2310.5 429.6 2334.9 415.6C2359.3 401.2 2387.3 394 2418.9 394C2466.1 394 2505.3 412 2536.5 448C2542.1 454.4 2544.1 461 2542.5 467.8C2540.9 474.6 2536.5 480.6 2529.3 485.8C2523.7 489.8 2517.5 491.2 2510.7 490C2503.9 488.4 2497.7 484.8 2492.1 479.2C2472.5 458.4 2448.1 448 2418.9 448C2388.1 448 2363.1 458.4 2343.9 479.2C2324.7 499.6 2315.1 526.8 2315.1 560.8C2315.1 582.4 2319.5 601.6 2328.3 618.4C2337.5 635.2 2350.1 648.6 2366.1 658.6C2382.1 668.2 2400.7 673 2421.9 673C2449.1 673 2471.1 666 2487.9 652C2494.3 646.8 2500.9 644 2507.7 643.6C2514.5 642.8 2520.5 644.6 2525.7 649C2532.5 654.6 2536.3 661 2537.1 668.2C2537.9 675 2535.5 681.2 2529.9 686.8C2501.1 713.6 2465.1 727 2421.9 727Z"/>
<path d="M2736.5 727C2707.3 727 2681.1 719.8 2657.9 705.4C2634.7 690.6 2616.3 670.8 2602.7 646C2589.5 620.8 2582.9 592.4 2582.9 560.8C2582.9 529.2 2590.1 500.8 2604.5 475.6C2619.3 450.4 2639.1 430.6 2663.9 416.2C2689.1 401.4 2717.3 394 2748.5 394C2779.7 394 2807.7 401.4 2832.5 416.2C2857.3 430.6 2876.9 450.4 2891.3 475.6C2906.1 500.8 2913.5 529.2 2913.5 560.8V694.6C2913.5 703.4 2910.5 710.8 2904.5 716.8C2898.9 722.4 2891.7 725.2 2882.9 725.2C2874.1 725.2 2866.7 722.4 2860.7 716.8C2855.1 710.8 2852.3 703.4 2852.3 694.6V672.4C2838.3 689.2 2821.3 702.6 2801.3 712.6C2781.7 722.2 2760.1 727 2736.5 727ZM2748.5 673C2768.9 673 2787.1 668.2 2803.1 658.6C2819.1 648.6 2831.7 635.2 2840.9 618.4C2850.1 601.2 2854.7 582 2854.7 560.8C2854.7 539.2 2850.1 520 2840.9 503.2C2831.7 486 2819.1 472.6 2803.1 463C2787.1 453 2768.9 448 2748.5 448C2728.5 448 2710.3 453 2693.9 463C2677.9 472.6 2665.1 486 2655.5 503.2C2646.3 520 2641.7 539.2 2641.7 560.8C2641.7 582 2646.3 601.2 2655.5 618.4C2665.1 635.2 2677.9 648.6 2693.9 658.6C2710.3 668.2 2728.5 673 2748.5 673Z"/>
<path d="M2996.6 865C2987.8 865 2980.4 862 2974.4 856C2968.8 850.4 2966 843.2 2966 834.4V560.8C2966.4 529.2 2973.8 500.8 2988.2 475.6C3002.6 450.4 3022.2 430.6 3047 416.2C3071.8 401.4 3099.8 394 3131 394C3162.6 394 3190.8 401.4 3215.6 416.2C3240.4 430.6 3260 450.4 3274.4 475.6C3289.2 500.8 3296.6 529.2 3296.6 560.8C3296.6 592.4 3289.8 620.8 3276.2 646C3263 670.8 3244.8 690.6 3221.6 705.4C3198.4 719.8 3172.2 727 3143 727C3119.4 727 3097.6 722.2 3077.6 712.6C3058 702.6 3041.2 689.2 3027.2 672.4V834.4C3027.2 843.2 3024.4 850.4 3018.8 856C3013.2 862 3005.8 865 2996.6 865ZM3131 673C3151.4 673 3169.6 668.2 3185.6 658.6C3201.6 648.6 3214.2 635.2 3223.4 618.4C3233 601.2 3237.8 582 3237.8 560.8C3237.8 539.2 3233 520 3223.4 503.2C3214.2 486 3201.6 472.6 3185.6 463C3169.6 453 3151.4 448 3131 448C3111 448 3092.8 453 3076.4 463C3060.4 472.6 3047.8 486 3038.6 503.2C3029.4 520 3024.8 539.2 3024.8 560.8C3024.8 582 3029.4 601.2 3038.6 618.4C3047.8 635.2 3060.4 648.6 3076.4 658.6C3092.8 668.2 3111 673 3131 673Z"/>
<path d="M3493 727C3465 727 3439 722.8 3415 714.4C3391.4 705.6 3373 694.6 3359.8 681.4C3353.8 675 3351.2 667.8 3352 659.8C3353.2 651.4 3357.2 644.6 3364 639.4C3372 633 3379.8 630.4 3387.4 631.6C3395.4 632.4 3402.2 635.8 3407.8 641.8C3414.6 649.4 3425.4 656.6 3440.2 663.4C3455.4 669.8 3472.2 673 3490.6 673C3513.8 673 3531.4 669.2 3543.4 661.6C3555.8 654 3562.2 644.2 3562.6 632.2C3563 620.2 3557.2 609.8 3545.2 601C3533.6 592.2 3512.2 585 3481 579.4C3440.6 571.4 3411.2 559.4 3392.8 543.4C3374.8 527.4 3365.8 507.8 3365.8 484.6C3365.8 464.2 3371.8 447.4 3383.8 434.2C3395.8 420.6 3411.2 410.6 3430 404.2C3448.8 397.4 3468.4 394 3488.8 394C3515.2 394 3538.6 398.2 3559 406.6C3579.4 415 3595.6 426.6 3607.6 441.4C3613.2 447.8 3615.8 454.6 3615.4 461.8C3615 468.6 3611.6 474.4 3605.2 479.2C3598.8 483.6 3591.2 485 3582.4 483.4C3573.6 481.8 3566.2 478.2 3560.2 472.6C3550.2 463 3539.4 456.4 3527.8 452.8C3516.2 449.2 3502.8 447.4 3487.6 447.4C3470 447.4 3455 450.4 3442.6 456.4C3430.6 462.4 3424.6 471.2 3424.6 482.8C3424.6 490 3426.4 496.6 3430 502.6C3434 508.2 3441.6 513.4 3452.8 518.2C3464 522.6 3480.4 527 3502 531.4C3547.2 540.2 3578.4 552.8 3595.6 569.2C3613.2 585.2 3622 605 3622 628.6C3622 647 3617 663.6 3607 678.4C3597.4 693.2 3583 705 3563.8 713.8C3545 722.6 3521.4 727 3493 727Z"/>
</mask>
<path d="M1058.2 724.6C1049.4 724.6 1042 721.6 1036 715.6C1030 709.6 1027 702.2 1027 693.4V287.2C1027 278 1030 270.6 1036 265C1042 259 1049.4 256 1058.2 256H1201.6C1228.8 256 1252.6 261.4 1273 272.2C1293.8 282.6 1310 297.2 1321.6 316C1333.6 334.8 1339.6 356.4 1339.6 380.8C1339.6 400.4 1334.2 418.2 1323.4 434.2C1313 449.8 1298.6 462.2 1280.2 471.4C1306.6 477.8 1327.8 490.4 1343.8 509.2C1359.8 528 1367.8 552.6 1367.8 583C1367.8 610.6 1361.2 635 1348 656.2C1335.2 677.4 1317.2 694.2 1294 706.6C1270.8 718.6 1244.2 724.6 1214.2 724.6H1058.2ZM1089.4 448.6H1201.6C1224.4 448.6 1243 443 1257.4 431.8C1272.2 420.6 1279.6 403.6 1279.6 380.8C1279.6 358 1272.2 341.2 1257.4 330.4C1243 319.2 1224.4 313.6 1201.6 313.6H1089.4V448.6ZM1089.4 667H1214.2C1241.4 667 1263.8 660 1281.4 646C1299 631.6 1307.8 610.6 1307.8 583C1307.8 557.4 1299 538.2 1281.4 525.4C1263.8 512.6 1241.4 506.2 1214.2 506.2H1089.4V667Z" fill="white"/>
<path d="M1445.4 724.6C1436.6 724.6 1429.2 721.8 1423.2 716.2C1417.6 710.2 1414.8 702.8 1414.8 694V427C1414.8 417.8 1417.6 410.4 1423.2 404.8C1429.2 399.2 1436.6 396.4 1445.4 396.4C1454.6 396.4 1462 399.2 1467.6 404.8C1473.2 410.4 1476 417.8 1476 427V694C1476 702.8 1473.2 710.2 1467.6 716.2C1462 721.8 1454.6 724.6 1445.4 724.6ZM1445.4 343C1434.6 343 1425.2 339.2 1417.2 331.6C1409.6 323.6 1405.8 314.2 1405.8 303.4C1405.8 292.6 1409.6 283.4 1417.2 275.8C1425.2 267.8 1434.6 263.8 1445.4 263.8C1456.2 263.8 1465.4 267.8 1473 275.8C1481 283.4 1485 292.6 1485 303.4C1485 314.2 1481 323.6 1473 331.6C1465.4 339.2 1456.2 343 1445.4 343Z" fill="white"/>
<path d="M1701 727C1667.8 727 1638.2 720 1612.2 706C1586.6 691.6 1566.4 672 1551.6 647.2C1537.2 622 1530 593.2 1530 560.8C1530 528 1536.8 499.2 1550.4 474.4C1564.4 449.2 1583.6 429.6 1608 415.6C1632.4 401.2 1660.4 394 1692 394C1723.2 394 1750 401 1772.4 415C1794.8 428.6 1811.8 447.6 1823.4 472C1835.4 496 1841.4 523.8 1841.4 555.4C1841.4 563 1838.8 569.4 1833.6 574.6C1828.4 579.4 1821.8 581.8 1813.8 581.8H1585.8C1590.2 609.4 1602.8 632 1623.6 649.6C1644.8 666.8 1670.6 675.4 1701 675.4C1713.4 675.4 1726 673.2 1738.8 668.8C1752 664 1762.6 658.6 1770.6 652.6C1776.6 648.2 1783 646 1789.8 646C1797 645.6 1803.2 647.6 1808.4 652C1815.2 658 1818.8 664.6 1819.2 671.8C1819.6 679 1816.4 685.2 1809.6 690.4C1796 701.2 1779 710 1758.6 716.8C1738.6 723.6 1719.4 727 1701 727ZM1692 445.6C1662.4 445.6 1638.6 453.8 1620.6 470.2C1602.6 486.6 1591.2 507.8 1586.4 533.8H1786.2C1782.6 508.2 1772.8 487.2 1756.8 470.8C1740.8 454 1719.2 445.6 1692 445.6Z" fill="white"/>
<path d="M1921.1 725.2C1912.3 725.2 1904.9 722.4 1898.9 716.8C1893.3 710.8 1890.5 703.4 1890.5 694.6V427C1890.5 417.8 1893.3 410.4 1898.9 404.8C1904.9 399.2 1912.3 396.4 1921.1 396.4C1930.3 396.4 1937.7 399.2 1943.3 404.8C1948.9 410.4 1951.7 417.8 1951.7 427V433.6C1964.1 421.2 1979.1 411.4 1996.7 404.2C2014.3 397 2033.3 393.4 2053.7 393.4C2081.3 393.4 2105.9 399.4 2127.5 411.4C2149.5 423 2166.7 440.2 2179.1 463C2191.9 485.8 2198.3 513.8 2198.3 547V694.6C2198.3 703.4 2195.3 710.8 2189.3 716.8C2183.7 722.4 2176.5 725.2 2167.7 725.2C2158.9 725.2 2151.5 722.4 2145.5 716.8C2139.9 710.8 2137.1 703.4 2137.1 694.6V547C2137.1 513 2127.9 488.2 2109.5 472.6C2091.5 456.6 2068.9 448.6 2041.7 448.6C2024.9 448.6 2009.7 452 1996.1 458.8C1982.5 465.6 1971.7 474.8 1963.7 486.4C1955.7 497.6 1951.7 510.6 1951.7 525.4V694.6C1951.7 703.4 1948.9 710.8 1943.3 716.8C1937.7 722.4 1930.3 725.2 1921.1 725.2Z" fill="white"/>
<path d="M2421.9 727C2389.9 727 2361.3 719.8 2336.1 705.4C2311.3 690.6 2291.7 670.8 2277.3 646C2263.3 620.8 2256.3 592.4 2256.3 560.8C2256.3 528.4 2263.3 499.6 2277.3 474.4C2291.3 449.2 2310.5 429.6 2334.9 415.6C2359.3 401.2 2387.3 394 2418.9 394C2466.1 394 2505.3 412 2536.5 448C2542.1 454.4 2544.1 461 2542.5 467.8C2540.9 474.6 2536.5 480.6 2529.3 485.8C2523.7 489.8 2517.5 491.2 2510.7 490C2503.9 488.4 2497.7 484.8 2492.1 479.2C2472.5 458.4 2448.1 448 2418.9 448C2388.1 448 2363.1 458.4 2343.9 479.2C2324.7 499.6 2315.1 526.8 2315.1 560.8C2315.1 582.4 2319.5 601.6 2328.3 618.4C2337.5 635.2 2350.1 648.6 2366.1 658.6C2382.1 668.2 2400.7 673 2421.9 673C2449.1 673 2471.1 666 2487.9 652C2494.3 646.8 2500.9 644 2507.7 643.6C2514.5 642.8 2520.5 644.6 2525.7 649C2532.5 654.6 2536.3 661 2537.1 668.2C2537.9 675 2535.5 681.2 2529.9 686.8C2501.1 713.6 2465.1 727 2421.9 727Z" fill="white"/>
<path d="M2736.5 727C2707.3 727 2681.1 719.8 2657.9 705.4C2634.7 690.6 2616.3 670.8 2602.7 646C2589.5 620.8 2582.9 592.4 2582.9 560.8C2582.9 529.2 2590.1 500.8 2604.5 475.6C2619.3 450.4 2639.1 430.6 2663.9 416.2C2689.1 401.4 2717.3 394 2748.5 394C2779.7 394 2807.7 401.4 2832.5 416.2C2857.3 430.6 2876.9 450.4 2891.3 475.6C2906.1 500.8 2913.5 529.2 2913.5 560.8V694.6C2913.5 703.4 2910.5 710.8 2904.5 716.8C2898.9 722.4 2891.7 725.2 2882.9 725.2C2874.1 725.2 2866.7 722.4 2860.7 716.8C2855.1 710.8 2852.3 703.4 2852.3 694.6V672.4C2838.3 689.2 2821.3 702.6 2801.3 712.6C2781.7 722.2 2760.1 727 2736.5 727ZM2748.5 673C2768.9 673 2787.1 668.2 2803.1 658.6C2819.1 648.6 2831.7 635.2 2840.9 618.4C2850.1 601.2 2854.7 582 2854.7 560.8C2854.7 539.2 2850.1 520 2840.9 503.2C2831.7 486 2819.1 472.6 2803.1 463C2787.1 453 2768.9 448 2748.5 448C2728.5 448 2710.3 453 2693.9 463C2677.9 472.6 2665.1 486 2655.5 503.2C2646.3 520 2641.7 539.2 2641.7 560.8C2641.7 582 2646.3 601.2 2655.5 618.4C2665.1 635.2 2677.9 648.6 2693.9 658.6C2710.3 668.2 2728.5 673 2748.5 673Z" fill="white"/>
<path d="M2996.6 865C2987.8 865 2980.4 862 2974.4 856C2968.8 850.4 2966 843.2 2966 834.4V560.8C2966.4 529.2 2973.8 500.8 2988.2 475.6C3002.6 450.4 3022.2 430.6 3047 416.2C3071.8 401.4 3099.8 394 3131 394C3162.6 394 3190.8 401.4 3215.6 416.2C3240.4 430.6 3260 450.4 3274.4 475.6C3289.2 500.8 3296.6 529.2 3296.6 560.8C3296.6 592.4 3289.8 620.8 3276.2 646C3263 670.8 3244.8 690.6 3221.6 705.4C3198.4 719.8 3172.2 727 3143 727C3119.4 727 3097.6 722.2 3077.6 712.6C3058 702.6 3041.2 689.2 3027.2 672.4V834.4C3027.2 843.2 3024.4 850.4 3018.8 856C3013.2 862 3005.8 865 2996.6 865ZM3131 673C3151.4 673 3169.6 668.2 3185.6 658.6C3201.6 648.6 3214.2 635.2 3223.4 618.4C3233 601.2 3237.8 582 3237.8 560.8C3237.8 539.2 3233 520 3223.4 503.2C3214.2 486 3201.6 472.6 3185.6 463C3169.6 453 3151.4 448 3131 448C3111 448 3092.8 453 3076.4 463C3060.4 472.6 3047.8 486 3038.6 503.2C3029.4 520 3024.8 539.2 3024.8 560.8C3024.8 582 3029.4 601.2 3038.6 618.4C3047.8 635.2 3060.4 648.6 3076.4 658.6C3092.8 668.2 3111 673 3131 673Z" fill="white"/>
<path d="M3493 727C3465 727 3439 722.8 3415 714.4C3391.4 705.6 3373 694.6 3359.8 681.4C3353.8 675 3351.2 667.8 3352 659.8C3353.2 651.4 3357.2 644.6 3364 639.4C3372 633 3379.8 630.4 3387.4 631.6C3395.4 632.4 3402.2 635.8 3407.8 641.8C3414.6 649.4 3425.4 656.6 3440.2 663.4C3455.4 669.8 3472.2 673 3490.6 673C3513.8 673 3531.4 669.2 3543.4 661.6C3555.8 654 3562.2 644.2 3562.6 632.2C3563 620.2 3557.2 609.8 3545.2 601C3533.6 592.2 3512.2 585 3481 579.4C3440.6 571.4 3411.2 559.4 3392.8 543.4C3374.8 527.4 3365.8 507.8 3365.8 484.6C3365.8 464.2 3371.8 447.4 3383.8 434.2C3395.8 420.6 3411.2 410.6 3430 404.2C3448.8 397.4 3468.4 394 3488.8 394C3515.2 394 3538.6 398.2 3559 406.6C3579.4 415 3595.6 426.6 3607.6 441.4C3613.2 447.8 3615.8 454.6 3615.4 461.8C3615 468.6 3611.6 474.4 3605.2 479.2C3598.8 483.6 3591.2 485 3582.4 483.4C3573.6 481.8 3566.2 478.2 3560.2 472.6C3550.2 463 3539.4 456.4 3527.8 452.8C3516.2 449.2 3502.8 447.4 3487.6 447.4C3470 447.4 3455 450.4 3442.6 456.4C3430.6 462.4 3424.6 471.2 3424.6 482.8C3424.6 490 3426.4 496.6 3430 502.6C3434 508.2 3441.6 513.4 3452.8 518.2C3464 522.6 3480.4 527 3502 531.4C3547.2 540.2 3578.4 552.8 3595.6 569.2C3613.2 585.2 3622 605 3622 628.6C3622 647 3617 663.6 3607 678.4C3597.4 693.2 3583 705 3563.8 713.8C3545 722.6 3521.4 727 3493 727Z" fill="white"/>
<path d="M1058.2 724.6C1049.4 724.6 1042 721.6 1036 715.6C1030 709.6 1027 702.2 1027 693.4V287.2C1027 278 1030 270.6 1036 265C1042 259 1049.4 256 1058.2 256H1201.6C1228.8 256 1252.6 261.4 1273 272.2C1293.8 282.6 1310 297.2 1321.6 316C1333.6 334.8 1339.6 356.4 1339.6 380.8C1339.6 400.4 1334.2 418.2 1323.4 434.2C1313 449.8 1298.6 462.2 1280.2 471.4C1306.6 477.8 1327.8 490.4 1343.8 509.2C1359.8 528 1367.8 552.6 1367.8 583C1367.8 610.6 1361.2 635 1348 656.2C1335.2 677.4 1317.2 694.2 1294 706.6C1270.8 718.6 1244.2 724.6 1214.2 724.6H1058.2ZM1089.4 448.6H1201.6C1224.4 448.6 1243 443 1257.4 431.8C1272.2 420.6 1279.6 403.6 1279.6 380.8C1279.6 358 1272.2 341.2 1257.4 330.4C1243 319.2 1224.4 313.6 1201.6 313.6H1089.4V448.6ZM1089.4 667H1214.2C1241.4 667 1263.8 660 1281.4 646C1299 631.6 1307.8 610.6 1307.8 583C1307.8 557.4 1299 538.2 1281.4 525.4C1263.8 512.6 1241.4 506.2 1214.2 506.2H1089.4V667Z" stroke="white" stroke-width="4" mask="url(#path-7-outside-1)"/>
<path d="M1445.4 724.6C1436.6 724.6 1429.2 721.8 1423.2 716.2C1417.6 710.2 1414.8 702.8 1414.8 694V427C1414.8 417.8 1417.6 410.4 1423.2 404.8C1429.2 399.2 1436.6 396.4 1445.4 396.4C1454.6 396.4 1462 399.2 1467.6 404.8C1473.2 410.4 1476 417.8 1476 427V694C1476 702.8 1473.2 710.2 1467.6 716.2C1462 721.8 1454.6 724.6 1445.4 724.6ZM1445.4 343C1434.6 343 1425.2 339.2 1417.2 331.6C1409.6 323.6 1405.8 314.2 1405.8 303.4C1405.8 292.6 1409.6 283.4 1417.2 275.8C1425.2 267.8 1434.6 263.8 1445.4 263.8C1456.2 263.8 1465.4 267.8 1473 275.8C1481 283.4 1485 292.6 1485 303.4C1485 314.2 1481 323.6 1473 331.6C1465.4 339.2 1456.2 343 1445.4 343Z" stroke="white" stroke-width="4" mask="url(#path-7-outside-1)"/>
<path d="M1701 727C1667.8 727 1638.2 720 1612.2 706C1586.6 691.6 1566.4 672 1551.6 647.2C1537.2 622 1530 593.2 1530 560.8C1530 528 1536.8 499.2 1550.4 474.4C1564.4 449.2 1583.6 429.6 1608 415.6C1632.4 401.2 1660.4 394 1692 394C1723.2 394 1750 401 1772.4 415C1794.8 428.6 1811.8 447.6 1823.4 472C1835.4 496 1841.4 523.8 1841.4 555.4C1841.4 563 1838.8 569.4 1833.6 574.6C1828.4 579.4 1821.8 581.8 1813.8 581.8H1585.8C1590.2 609.4 1602.8 632 1623.6 649.6C1644.8 666.8 1670.6 675.4 1701 675.4C1713.4 675.4 1726 673.2 1738.8 668.8C1752 664 1762.6 658.6 1770.6 652.6C1776.6 648.2 1783 646 1789.8 646C1797 645.6 1803.2 647.6 1808.4 652C1815.2 658 1818.8 664.6 1819.2 671.8C1819.6 679 1816.4 685.2 1809.6 690.4C1796 701.2 1779 710 1758.6 716.8C1738.6 723.6 1719.4 727 1701 727ZM1692 445.6C1662.4 445.6 1638.6 453.8 1620.6 470.2C1602.6 486.6 1591.2 507.8 1586.4 533.8H1786.2C1782.6 508.2 1772.8 487.2 1756.8 470.8C1740.8 454 1719.2 445.6 1692 445.6Z" stroke="white" stroke-width="4" mask="url(#path-7-outside-1)"/>
<path d="M1921.1 725.2C1912.3 725.2 1904.9 722.4 1898.9 716.8C1893.3 710.8 1890.5 703.4 1890.5 694.6V427C1890.5 417.8 1893.3 410.4 1898.9 404.8C1904.9 399.2 1912.3 396.4 1921.1 396.4C1930.3 396.4 1937.7 399.2 1943.3 404.8C1948.9 410.4 1951.7 417.8 1951.7 427V433.6C1964.1 421.2 1979.1 411.4 1996.7 404.2C2014.3 397 2033.3 393.4 2053.7 393.4C2081.3 393.4 2105.9 399.4 2127.5 411.4C2149.5 423 2166.7 440.2 2179.1 463C2191.9 485.8 2198.3 513.8 2198.3 547V694.6C2198.3 703.4 2195.3 710.8 2189.3 716.8C2183.7 722.4 2176.5 725.2 2167.7 725.2C2158.9 725.2 2151.5 722.4 2145.5 716.8C2139.9 710.8 2137.1 703.4 2137.1 694.6V547C2137.1 513 2127.9 488.2 2109.5 472.6C2091.5 456.6 2068.9 448.6 2041.7 448.6C2024.9 448.6 2009.7 452 1996.1 458.8C1982.5 465.6 1971.7 474.8 1963.7 486.4C1955.7 497.6 1951.7 510.6 1951.7 525.4V694.6C1951.7 703.4 1948.9 710.8 1943.3 716.8C1937.7 722.4 1930.3 725.2 1921.1 725.2Z" stroke="white" stroke-width="4" mask="url(#path-7-outside-1)"/>
<path d="M2421.9 727C2389.9 727 2361.3 719.8 2336.1 705.4C2311.3 690.6 2291.7 670.8 2277.3 646C2263.3 620.8 2256.3 592.4 2256.3 560.8C2256.3 528.4 2263.3 499.6 2277.3 474.4C2291.3 449.2 2310.5 429.6 2334.9 415.6C2359.3 401.2 2387.3 394 2418.9 394C2466.1 394 2505.3 412 2536.5 448C2542.1 454.4 2544.1 461 2542.5 467.8C2540.9 474.6 2536.5 480.6 2529.3 485.8C2523.7 489.8 2517.5 491.2 2510.7 490C2503.9 488.4 2497.7 484.8 2492.1 479.2C2472.5 458.4 2448.1 448 2418.9 448C2388.1 448 2363.1 458.4 2343.9 479.2C2324.7 499.6 2315.1 526.8 2315.1 560.8C2315.1 582.4 2319.5 601.6 2328.3 618.4C2337.5 635.2 2350.1 648.6 2366.1 658.6C2382.1 668.2 2400.7 673 2421.9 673C2449.1 673 2471.1 666 2487.9 652C2494.3 646.8 2500.9 644 2507.7 643.6C2514.5 642.8 2520.5 644.6 2525.7 649C2532.5 654.6 2536.3 661 2537.1 668.2C2537.9 675 2535.5 681.2 2529.9 686.8C2501.1 713.6 2465.1 727 2421.9 727Z" stroke="white" stroke-width="4" mask="url(#path-7-outside-1)"/>
<path d="M2736.5 727C2707.3 727 2681.1 719.8 2657.9 705.4C2634.7 690.6 2616.3 670.8 2602.7 646C2589.5 620.8 2582.9 592.4 2582.9 560.8C2582.9 529.2 2590.1 500.8 2604.5 475.6C2619.3 450.4 2639.1 430.6 2663.9 416.2C2689.1 401.4 2717.3 394 2748.5 394C2779.7 394 2807.7 401.4 2832.5 416.2C2857.3 430.6 2876.9 450.4 2891.3 475.6C2906.1 500.8 2913.5 529.2 2913.5 560.8V694.6C2913.5 703.4 2910.5 710.8 2904.5 716.8C2898.9 722.4 2891.7 725.2 2882.9 725.2C2874.1 725.2 2866.7 722.4 2860.7 716.8C2855.1 710.8 2852.3 703.4 2852.3 694.6V672.4C2838.3 689.2 2821.3 702.6 2801.3 712.6C2781.7 722.2 2760.1 727 2736.5 727ZM2748.5 673C2768.9 673 2787.1 668.2 2803.1 658.6C2819.1 648.6 2831.7 635.2 2840.9 618.4C2850.1 601.2 2854.7 582 2854.7 560.8C2854.7 539.2 2850.1 520 2840.9 503.2C2831.7 486 2819.1 472.6 2803.1 463C2787.1 453 2768.9 448 2748.5 448C2728.5 448 2710.3 453 2693.9 463C2677.9 472.6 2665.1 486 2655.5 503.2C2646.3 520 2641.7 539.2 2641.7 560.8C2641.7 582 2646.3 601.2 2655.5 618.4C2665.1 635.2 2677.9 648.6 2693.9 658.6C2710.3 668.2 2728.5 673 2748.5 673Z" stroke="white" stroke-width="4" mask="url(#path-7-outside-1)"/>
<path d="M2996.6 865C2987.8 865 2980.4 862 2974.4 856C2968.8 850.4 2966 843.2 2966 834.4V560.8C2966.4 529.2 2973.8 500.8 2988.2 475.6C3002.6 450.4 3022.2 430.6 3047 416.2C3071.8 401.4 3099.8 394 3131 394C3162.6 394 3190.8 401.4 3215.6 416.2C3240.4 430.6 3260 450.4 3274.4 475.6C3289.2 500.8 3296.6 529.2 3296.6 560.8C3296.6 592.4 3289.8 620.8 3276.2 646C3263 670.8 3244.8 690.6 3221.6 705.4C3198.4 719.8 3172.2 727 3143 727C3119.4 727 3097.6 722.2 3077.6 712.6C3058 702.6 3041.2 689.2 3027.2 672.4V834.4C3027.2 843.2 3024.4 850.4 3018.8 856C3013.2 862 3005.8 865 2996.6 865ZM3131 673C3151.4 673 3169.6 668.2 3185.6 658.6C3201.6 648.6 3214.2 635.2 3223.4 618.4C3233 601.2 3237.8 582 3237.8 560.8C3237.8 539.2 3233 520 3223.4 503.2C3214.2 486 3201.6 472.6 3185.6 463C3169.6 453 3151.4 448 3131 448C3111 448 3092.8 453 3076.4 463C3060.4 472.6 3047.8 486 3038.6 503.2C3029.4 520 3024.8 539.2 3024.8 560.8C3024.8 582 3029.4 601.2 3038.6 618.4C3047.8 635.2 3060.4 648.6 3076.4 658.6C3092.8 668.2 3111 673 3131 673Z" stroke="white" stroke-width="4" mask="url(#path-7-outside-1)"/>
<path d="M3493 727C3465 727 3439 722.8 3415 714.4C3391.4 705.6 3373 694.6 3359.8 681.4C3353.8 675 3351.2 667.8 3352 659.8C3353.2 651.4 3357.2 644.6 3364 639.4C3372 633 3379.8 630.4 3387.4 631.6C3395.4 632.4 3402.2 635.8 3407.8 641.8C3414.6 649.4 3425.4 656.6 3440.2 663.4C3455.4 669.8 3472.2 673 3490.6 673C3513.8 673 3531.4 669.2 3543.4 661.6C3555.8 654 3562.2 644.2 3562.6 632.2C3563 620.2 3557.2 609.8 3545.2 601C3533.6 592.2 3512.2 585 3481 579.4C3440.6 571.4 3411.2 559.4 3392.8 543.4C3374.8 527.4 3365.8 507.8 3365.8 484.6C3365.8 464.2 3371.8 447.4 3383.8 434.2C3395.8 420.6 3411.2 410.6 3430 404.2C3448.8 397.4 3468.4 394 3488.8 394C3515.2 394 3538.6 398.2 3559 406.6C3579.4 415 3595.6 426.6 3607.6 441.4C3613.2 447.8 3615.8 454.6 3615.4 461.8C3615 468.6 3611.6 474.4 3605.2 479.2C3598.8 483.6 3591.2 485 3582.4 483.4C3573.6 481.8 3566.2 478.2 3560.2 472.6C3550.2 463 3539.4 456.4 3527.8 452.8C3516.2 449.2 3502.8 447.4 3487.6 447.4C3470 447.4 3455 450.4 3442.6 456.4C3430.6 462.4 3424.6 471.2 3424.6 482.8C3424.6 490 3426.4 496.6 3430 502.6C3434 508.2 3441.6 513.4 3452.8 518.2C3464 522.6 3480.4 527 3502 531.4C3547.2 540.2 3578.4 552.8 3595.6 569.2C3613.2 585.2 3622 605 3622 628.6C3622 647 3617 663.6 3607 678.4C3597.4 693.2 3583 705 3563.8 713.8C3545 722.6 3521.4 727 3493 727Z" stroke="white" stroke-width="4" mask="url(#path-7-outside-1)"/>
<circle cx="1445" cy="300" r="56" fill="#FF8402"/>
</svg>
