<svg xmlns="http://www.w3.org/2000/svg" fill="none" viewBox="63.09 63.09 339.8 339.83">
<path d="M400.062 233C401.637 233 402.916 231.723 402.89 230.148C402.456 204.31 396.134 178.897 384.389 155.851C372.212 131.956 354.553 111.284 332.854 95.5234C311.156 79.7631 286.035 69.3627 259.547 65.1727C233.997 61.1314 207.875 62.9785 183.17 70.5571C181.664 71.019 180.845 72.6306 181.332 74.1285C181.819 75.6263 183.428 76.4431 184.934 75.9821C208.783 68.6814 233.995 66.9058 258.655 70.8065C284.255 74.8558 308.532 84.9071 329.502 100.138C350.472 115.37 367.539 135.348 379.307 158.44C390.643 180.685 396.752 205.21 397.185 230.148C397.212 231.723 398.487 233 400.062 233Z" fill="#36A2FE"/>
<path d="M147.341 376.43C146.533 377.782 146.974 379.536 148.339 380.32C170.745 393.196 195.805 400.798 221.613 402.532C248.371 404.329 275.174 399.767 299.831 389.219C324.487 378.671 346.297 362.436 363.476 341.843C380.045 321.98 391.853 298.606 398.014 273.509C398.39 271.98 397.426 270.45 395.89 270.101C394.355 269.751 392.828 270.713 392.452 272.242C386.492 296.461 375.089 319.018 359.096 338.189C342.493 358.091 321.416 373.781 297.587 383.975C273.758 394.169 247.855 398.578 221.995 396.841C197.085 395.168 172.897 387.837 151.264 375.423C149.898 374.639 148.149 375.078 147.341 376.43Z" fill="#D03E3F"/>
<path d="M153.35 86.1479C152.599 84.7633 150.866 84.2476 149.495 85.0217C126.989 97.7217 107.665 115.395 93.0056 136.707C77.8074 158.803 68.0551 184.182 64.5464 210.77C61.0378 237.357 63.8723 264.398 72.8182 289.68C81.4468 314.065 95.5246 336.146 113.965 354.25C115.089 355.353 116.896 355.305 117.981 354.162C119.065 353.02 119.016 351.217 117.893 350.112C100.105 332.629 86.5236 311.313 78.1953 287.777C69.5497 263.344 66.8104 237.211 70.2013 211.516C73.5922 185.821 83.017 161.294 97.705 139.94C111.854 119.369 130.5 102.307 152.214 90.0363C153.586 89.2614 154.101 87.5324 153.35 86.1479Z" fill="#FBCC13"/>
</svg>