<svg width="11" height="32" viewBox="0 0 11 32" fill="none" xmlns="http://www.w3.org/2000/svg">
<path d="M3.87504 0.551361C3.1635 1.24344 2.06735 2.41647 1.20196 3.42527L0.519268 4.21119L0.644268 5.24345C0.711576 5.8065 0.836576 6.90914 0.913499 7.68333C1.00004 8.45752 1.08658 9.1848 1.11542 9.29037C1.15388 9.43113 1.11542 9.50151 1.00965 9.50151C0.826961 9.50151 0.817345 9.44286 1.31735 11.3783C1.50004 12.1173 1.67311 12.7977 1.69235 12.8681C1.71158 12.9502 1.7885 12.9854 1.87504 12.9502C1.96158 12.9033 2.00965 12.8094 1.98081 12.7273C1.95196 12.6335 2.00004 12.5396 2.07696 12.5044C2.18273 12.4575 2.17311 12.3637 2.00965 12.0235C1.75004 11.4956 1.08658 6.99125 1.04811 5.5367C1.01927 4.50444 1.01927 4.49271 1.37504 3.9062C1.72119 3.33142 2.51927 2.46339 3.75004 1.36075C4.09619 1.04403 4.44235 0.692125 4.5385 0.574823C4.68273 0.36368 4.75004 0.422333 5.96158 1.99418C6.6635 2.89741 7.44235 3.82409 7.69235 4.0587L8.15388 4.48098L7.79811 5.39594C7.60581 5.88861 6.82696 7.7889 6.05773 9.59535C4.45196 13.3959 4.77888 13.0323 2.9135 13.0675L1.70196 13.0792L1.29811 13.6423C0.875038 14.2405 0.817345 14.4634 1.01927 14.8388C1.09619 14.9678 1.15388 15.1789 1.15388 15.308C1.15388 15.5191 1.22119 15.5543 1.60581 15.5778C1.84619 15.5895 2.06735 15.6247 2.09619 15.6599C2.12504 15.6951 2.1635 16.4223 2.19235 17.2786L2.23081 18.827L1.58658 20.5162C0.519268 23.3314 0.0961914 24.6217 0.0961914 25.044C0.0961914 25.2669 0.134653 25.4546 0.173114 25.4546C0.269268 25.4546 0.269268 25.4429 4.18273 15.4839C6.00004 10.8622 7.72119 6.51031 8.00965 5.79477C8.29811 5.07922 8.55773 4.42233 8.57696 4.32849C8.59619 4.22292 7.93273 3.41353 6.87504 2.2757C5.92311 1.24345 5.08658 0.305027 5.00965 0.199455C4.7885 -0.12899 4.46158 -0.0234184 3.87504 0.551361ZM4.20196 14.0411C3.75965 15.0851 3.74042 15.0968 2.52888 15.1672C1.46158 15.2376 1.44235 15.2259 1.44235 14.9795C1.44235 14.8388 1.40388 14.6511 1.35581 14.5572C1.29811 14.4517 1.33658 14.264 1.47119 14.0059L1.68273 13.6071H2.64427C3.17311 13.5954 3.77888 13.5484 3.99042 13.5015C4.20196 13.4546 4.38465 13.4311 4.40388 13.4429C4.42311 13.4546 4.32696 13.7244 4.20196 14.0411ZM3.39427 15.9179C3.31735 16.1643 3.11542 16.6804 2.95196 17.0675C2.68273 17.7244 2.65388 17.7478 2.58658 17.4781C2.54811 17.3138 2.51927 16.8329 2.50965 16.3989C2.50004 15.5426 2.48081 15.5543 3.2885 15.4956L3.54811 15.4839L3.39427 15.9179Z" fill="white"/>
<path d="M4.16354 3.34319C3.99046 3.49568 3.94238 3.64817 3.94238 4.03527C3.94238 4.49275 3.97123 4.56313 4.23084 4.69216C4.49046 4.82119 4.55777 4.80946 4.85584 4.56313C5.25008 4.23468 5.25969 4.15257 4.97123 3.62471C4.72123 3.16724 4.47123 3.08512 4.16354 3.34319ZM4.71161 3.76548C4.86546 4.09392 4.76931 4.34026 4.48084 4.34026C4.22123 4.34026 4.10584 4.02354 4.25008 3.70682C4.36546 3.44876 4.58661 3.47222 4.71161 3.76548Z" fill="white"/>
<path d="M10.1926 5.98248C10.1926 6.04113 10.1349 6.09978 10.0676 6.09978C10.0099 6.09978 9.84642 6.42822 9.72142 6.82705C9.3368 8.04699 5.49065 17.3256 5.48103 17.0323C5.48103 16.8798 5.42334 16.7743 5.32719 16.7743C5.19257 16.7743 5.17334 16.8681 5.23103 17.3256C5.28873 17.8534 5.25026 17.9707 3.88488 21.2083C3.11565 23.0499 2.28873 24.9737 2.04834 25.4898C1.79834 26.0294 1.60603 26.6159 1.5868 26.8622C1.55796 27.2845 1.59642 27.3432 2.43296 28.2229C2.91373 28.7391 3.52911 29.3842 3.79834 29.6775C5.00988 31.0265 5.57719 31.5661 5.73103 31.5309C5.9618 31.4839 9.52911 26.9209 9.53873 26.6628C9.53873 26.5455 9.36565 24.7625 9.15411 22.698C8.78873 19.179 8.44257 15.0617 8.48103 14.6628C8.50988 14.4165 8.36565 13.1731 8.25988 12.6335C8.17334 12.2112 8.2118 12.0353 8.90411 10.1115C9.30796 8.97368 9.8368 7.57778 10.0676 7.01473C10.2887 6.45168 10.481 5.95901 10.481 5.92382C10.481 5.88863 10.4137 5.86517 10.3368 5.86517C10.2599 5.86517 10.1926 5.91209 10.1926 5.98248ZM7.98103 14.7449C8.0868 15.5661 8.29834 17.5367 8.45219 19.1203C8.75027 22.0294 9.09642 25.2552 9.19257 26.0763C9.25027 26.4869 9.2118 26.569 8.5868 27.4136C7.50027 28.9033 6.34642 30.3696 5.95219 30.7449L5.5868 31.0968L3.7118 28.9619C1.98103 27.0147 1.8368 26.8153 1.94257 26.5807C2.00026 26.4517 2.49065 25.3608 3.02911 24.1643C3.56757 22.9678 4.27911 21.3725 4.60603 20.6218C4.94257 19.8593 5.25026 19.2024 5.30796 19.1672C5.37526 19.1203 5.3945 20.3051 5.37526 22.827C5.3368 26.5924 5.34642 26.6042 5.65411 26.5221C5.69257 26.5221 5.72142 24.6218 5.72142 22.3109L5.72142 18.1115L6.73103 15.6482C7.28873 14.2875 7.75027 13.1966 7.7695 13.2082C7.78873 13.22 7.88488 13.9121 7.98103 14.7449Z" fill="white"/>
</svg>
