<svg xmlns="http://www.w3.org/2000/svg" width="655" height="655" fill="none"><path fill="#fff" d="M327.261 654.581c180.73 0 327.241-146.511 327.241-327.241C654.502 146.609 507.991.099 327.261.099S.02 146.609.02 327.34c0 180.73 146.511 327.241 327.241 327.241Z"/><path fill="#C81517" d="M327.32 0C146.549 0 0 146.549 0 327.32c0 140.563 88.617 260.398 213.017 306.772 11.519-37.443 40.466-67.219 77.375-79.924-48.152-16.597-82.789-62.18-82.789-115.963 0-40.821 19.996-76.88 50.661-99.188-17.21-40.722-43.153-77.868-75.636-108.138-6.283 3.932-13.692 6.243-21.635 6.243-22.604 0-40.92-18.316-40.92-40.92 0-22.603 18.316-40.919 40.92-40.919 22.603 0 40.92 18.316 40.92 40.919a40.585 40.585 0 0 1-3.419 16.341c34.499 31.989 62.2 71.15 80.852 114.145 15.55-7.133 32.8-11.203 51.017-11.203 18.237 0 35.467 4.09 51.017 11.203 18.197-41.947 45.049-80.22 78.402-111.774-2.885-5.612-4.545-11.954-4.545-18.692 0-22.604 18.316-40.92 40.92-40.92 22.604 0 40.92 18.316 40.92 40.92 0 22.604-18.316 40.92-40.92 40.92a40.835 40.835 0 0 1-19.442-4.9c-31.831 30.033-57.3 66.685-74.253 106.815 30.646 22.307 50.641 58.367 50.641 99.188 0 53.783-34.656 99.385-82.808 115.963 36.218 12.467 64.788 41.354 76.723 77.809C568.592 584.221 654.68 465.887 654.68 327.36 654.64 146.549 508.091 0 327.32 0Z"/></svg>