<svg width="40" height="40" viewBox="0 0 40 40" fill="none" xmlns="http://www.w3.org/2000/svg">
<path d="M39.3342 15.831L39.278 15.6818L33.8336 0.930396C33.7229 0.641275 33.5267 0.396013 33.2734 0.2298C33.0199 0.0664113 32.7242 -0.0122822 32.4262 0.00434521C32.1282 0.0209726 31.8424 0.13212 31.6072 0.322781C31.3746 0.518915 31.2059 0.784684 31.124 1.08392L27.4479 12.7605H12.5625L8.88643 1.08392C8.8067 0.783054 8.63762 0.515953 8.40323 0.320618C8.16805 0.129957 7.88217 0.0188098 7.58421 0.00218241C7.28625 -0.014445 6.99055 0.0642485 6.73703 0.227638C6.48424 0.394522 6.28828 0.639569 6.17677 0.928233L0.722041 15.6732L0.667889 15.8224C-0.115845 17.9484 -0.212584 20.2813 0.392257 22.4694C0.997099 24.6575 2.27073 26.5821 4.02112 27.9531L4.03987 27.9682L4.08985 28.005L12.3834 34.453L16.4864 37.6771L18.9857 39.6361C19.278 39.8666 19.635 39.9913 20.0021 39.9913C20.3691 39.9913 20.7261 39.8666 21.0185 39.6361L23.5178 37.6771L27.6208 34.453L35.9643 27.966L35.9851 27.9487C37.7316 26.5775 39.0023 24.6549 39.6062 22.4698C40.2101 20.2846 40.1147 17.955 39.3342 15.831Z" fill="#E24329"/>
<path d="M39.3342 15.8312L39.278 15.682C36.6251 16.2473 34.1253 17.4139 31.9571 19.0985L20 28.4852C24.0718 31.6833 27.6166 34.4619 27.6166 34.4619L35.9601 27.9749L35.981 27.9576C37.7299 26.5864 39.0026 24.6625 39.6073 22.4755C40.2121 20.2885 40.1162 17.9568 39.3342 15.8312Z" fill="#FC6D26"/>
<path d="M12.3838 34.4616L16.4868 37.6856L18.9861 39.6447C19.2785 39.8751 19.6354 39.9999 20.0025 39.9999C20.3696 39.9999 20.7265 39.8751 21.0189 39.6447L23.5182 37.6856L27.6212 34.4616C27.6212 34.4616 24.0722 31.6743 20.0004 28.4849C15.9286 31.6743 12.3838 34.4616 12.3838 34.4616Z" fill="#FCA326"/>
<path d="M8.04083 19.0984C5.87434 17.4103 3.37506 16.2407 0.722041 15.6732L0.667889 15.8224C-0.115845 17.9484 -0.212584 20.2814 0.392257 22.4694C0.997099 24.6575 2.27073 26.5821 4.02112 27.9531L4.03987 27.9682L4.08985 28.005L12.3834 34.4531C12.3834 34.4531 15.9241 31.6745 20 28.4764L8.04083 19.0984Z" fill="#FC6D26"/>
</svg>
