<svg width="20" height="20" viewBox="0 0 20 20" fill="currentColor" stroke="currentColor"  xmlns="http://www.w3.org/2000/svg">
<path d="M5.14844 0C0.37377 0 0 0.373771 0 5.14844V14.8516C0 19.6262 0.37377 20 5.14844 20H14.8516C19.6262 20 20 19.6262 20 14.8516V5.17969C20 0.375688 19.6243 0 14.8203 0H5.14844ZM4.66667 0.666667H15.3333C19.0433 0.666667 19.3333 0.956667 19.3333 4.66667V15.3333C19.3333 19.0433 19.0433 19.3333 15.3333 19.3333H4.66667C0.956667 19.3333 0.666667 19.0433 0.666667 15.3333V4.66667C0.666667 0.956667 0.956667 0.666667 4.66667 0.666667ZM5.2513 3.2526C4.43664 3.2526 3.77604 3.91126 3.77604 4.72526C3.77604 5.53926 4.43597 6.20052 5.2513 6.20052C6.06397 6.20052 6.72396 5.53926 6.72396 4.72526C6.72396 3.91259 6.06397 3.2526 5.2513 3.2526ZM12.9661 7.16146C11.7361 7.16146 10.9122 7.83723 10.5742 8.47656H10.5404V7.36458H8.11458V15.5H10.6419V11.4753C10.6419 10.4146 10.8429 9.38542 12.1589 9.38542C13.4555 9.38542 13.474 10.599 13.474 11.543V15.5H16V11.0378C16 8.84709 15.5261 7.16146 12.9661 7.16146ZM3.98568 7.36458V15.5H6.51432V7.36458H3.98568Z" />
</svg>
