<svg width="40" height="40" viewBox="0 0 40 40" fill="none" xmlns="http://www.w3.org/2000/svg">
<g clip-path="url(#clip0_40_131)">
<path d="M19.8752 0.108765L20.9427 2.11376C21.1827 2.48376 21.4427 2.81126 21.7489 3.11626C22.6427 4.01001 23.4914 4.94626 24.2539 5.94876C26.0627 8.32376 27.2827 10.9613 28.1539 13.8138C28.6764 15.5563 28.9602 17.3438 28.9814 19.1513C29.0689 24.555 27.2164 29.195 23.4814 33.0513C22.8714 33.6613 22.2189 34.2263 21.5189 34.7288C21.1489 34.7288 20.9739 34.445 20.8214 34.1838C20.5377 33.705 20.3639 33.1588 20.2764 32.615C20.1452 31.9613 20.0589 31.3075 20.1014 30.6325V30.3275C20.0714 30.2625 19.7452 0.262515 19.8752 0.108765Z" fill="#599636"/>
<path d="M19.875 0.0425155C19.8312 -0.0449845 19.7875 0.0212655 19.7437 0.0637655C19.765 0.501265 19.6125 0.891266 19.3737 1.26377C19.1112 1.63377 18.7637 1.91752 18.415 2.22252C16.4775 3.90002 14.9525 5.92627 13.7312 8.19252C12.1062 11.2425 11.2687 14.5113 11.0312 17.9525C10.9225 19.1938 11.4237 23.5738 11.815 24.8375C12.8825 28.1925 14.8 31.0038 17.2837 33.4438C17.8937 34.0313 18.5462 34.5763 19.2212 35.1C19.4175 35.1 19.4387 34.925 19.4837 34.795C19.5697 34.5168 19.6353 34.2327 19.68 33.945L20.1175 30.6775L19.875 0.0425155Z" fill="#6CAC48"/>
<path d="M20.9424 36.0563C20.9862 35.5563 21.2262 35.1413 21.4874 34.7275C21.2249 34.6188 21.0299 34.4025 20.8774 34.1613C20.7462 33.9438 20.6374 33.6825 20.5524 33.4425C20.2474 32.5275 20.1824 31.5675 20.0949 30.6325V30.0663C19.9862 30.1538 19.9637 30.8938 19.9637 31.0038C19.9001 31.992 19.7689 32.9747 19.5712 33.945C19.5062 34.3375 19.4624 34.7288 19.2212 35.0775C19.2212 35.1213 19.2212 35.165 19.2424 35.23C19.6349 36.385 19.7424 37.5613 19.8087 38.76V39.1975C19.8087 39.72 19.7874 39.61 20.2212 39.785C20.3962 39.85 20.5912 39.8725 20.7662 40.0025C20.8974 40.0025 20.9187 39.8938 20.9187 39.8063L20.8537 39.0875V37.0825C20.8324 36.7325 20.8974 36.385 20.9412 36.0575L20.9424 36.0563Z" fill="#C2BFBF"/>
</g>
<defs>
<clipPath id="clip0_40_131">
<rect width="40" height="40" fill="white"/>
</clipPath>
</defs>
</svg>
