<svg width="40" height="40" viewBox="0 0 40 40" fill="none" xmlns="http://www.w3.org/2000/svg">
<g clip-path="url(#clip0_40_135)">
<path fill-rule="evenodd" clip-rule="evenodd" d="M36.8448 31.1578C34.6693 31.0972 32.9815 31.3202 31.567 31.9152C31.1597 32.0788 30.506 32.0788 30.4524 32.5915C30.67 32.8066 30.6963 33.1586 30.8871 33.4568C31.2133 33.9979 31.7852 34.7269 32.3017 35.105L34.0425 36.349C35.1034 36.9974 36.3003 37.3761 37.3338 38.0251C37.9326 38.4038 38.5307 38.8904 39.1295 39.2963C39.4343 39.5127 39.6191 39.8647 40.0002 39.9993V39.9175C39.8099 39.6751 39.7551 39.3236 39.5654 39.0522L38.7484 38.2687C37.96 37.2143 36.9802 36.2945 35.9192 35.5382C35.0485 34.9432 33.145 34.1324 32.7913 33.1326L32.7377 33.072C33.3352 33.0114 34.0425 32.8011 34.6144 32.6387C35.54 32.3964 36.3826 32.4497 37.3338 32.2067L38.6405 31.828V31.5856C38.1509 31.099 37.7972 30.45 37.2808 29.9907C35.8936 28.8012 34.3693 27.6384 32.7913 26.6653C31.948 26.1247 30.8597 25.7727 29.9621 25.314C29.6347 25.1516 29.0915 25.0704 28.9012 24.8001C28.4104 24.2063 28.139 23.4216 27.7854 22.7181L25.555 18.0141C25.0654 16.9597 24.7654 15.9053 24.1679 14.9322C21.3655 10.336 18.3181 7.55168 13.639 4.82065C12.6329 4.25287 11.436 4.00867 10.1635 3.71175L8.12335 3.60268C7.68739 3.41362 7.25265 2.89977 6.87157 2.65618C5.32102 1.68302 1.32178 -0.425698 0.178534 2.3532C-0.556194 4.11047 1.2669 5.84046 1.88578 6.73303C2.34918 7.35474 2.94672 8.05765 3.27414 8.76055C3.45706 9.21986 3.51804 9.70705 3.70889 10.1936C4.14363 11.3831 4.55215 12.7083 5.12347 13.8172C5.42833 14.385 5.74844 14.9807 6.12953 15.4939C6.3472 15.7969 6.72828 15.9266 6.80937 16.4131C6.42829 16.9543 6.40207 17.7644 6.1844 18.4413C5.20456 21.4965 5.58564 25.2813 6.97278 27.5306C7.40874 28.2062 8.43615 29.6938 9.83 29.1254C11.0543 28.6388 10.7812 27.0979 11.1348 25.746C11.2171 25.4218 11.1623 25.2055 11.3251 24.9886V25.0492L12.4409 27.293C13.2841 28.6176 14.7536 29.9968 15.9773 30.9166C16.6297 31.4032 17.1468 32.2418 17.9626 32.5388V32.457H17.909C17.7455 32.2146 17.5004 32.1055 17.2828 31.9164C16.7931 31.4299 16.2493 30.8348 15.8682 30.2943C14.7261 28.7806 13.7201 27.104 12.822 25.374C12.386 24.5359 12.0049 23.6167 11.6525 22.7787C11.4879 22.4539 11.4879 21.9667 11.2165 21.8055C10.808 22.3993 10.2105 22.9144 9.90987 23.644C9.39281 24.8062 9.33916 26.2393 9.14892 27.7263C9.03917 27.7535 9.08795 27.7263 9.03917 27.7869C8.16969 27.5712 7.8697 26.678 7.5435 25.9218C6.72767 24.0021 6.59109 20.9202 7.29838 18.703C7.48862 18.1353 8.30566 16.3507 7.97945 15.8102C7.81483 15.2964 7.27216 14.9994 6.97217 14.5935C6.61853 14.0796 6.23866 13.4312 5.99355 12.8635C5.34114 11.3486 5.01493 9.67312 4.30703 8.15884C3.97961 7.45594 3.4089 6.72576 2.94611 6.07739C2.42906 5.34722 1.85896 4.83337 1.45044 3.96867C1.31447 3.6657 1.12423 3.18457 1.3419 2.85978C1.39556 2.64346 1.50531 2.5568 1.72177 2.50833C2.07541 2.20535 3.08269 2.58953 3.43633 2.75071C4.44239 3.1567 5.28565 3.53481 6.12891 4.10198C6.51 4.37224 6.91852 4.88609 7.40814 5.02182H7.98006C8.85076 5.21088 9.82938 5.08242 10.6446 5.3248C12.0866 5.78532 13.392 6.46035 14.5627 7.19113C18.126 9.43498 21.0649 12.6253 23.0502 16.438C23.3764 17.0597 23.5124 17.6275 23.8124 18.2764C24.3843 19.6017 25.0916 20.9529 25.6617 22.2515C26.2336 23.5222 26.7775 24.8207 27.5933 25.8751C28.0019 26.4429 29.6335 26.7398 30.3676 27.0373C30.9121 27.2797 31.7548 27.4978 32.2456 27.7948C33.17 28.3625 34.0949 29.0115 34.965 29.6332C35.3997 29.9568 36.7607 30.633 36.8418 31.1723L36.8448 31.1578ZM9.10197 7.66378C8.72611 7.66047 8.35142 7.7059 7.98738 7.79891V7.8595H8.04104C8.25871 8.29215 8.6398 8.58967 8.91174 8.96839L9.53793 10.2663L9.59159 10.2057C9.97267 9.93549 10.1635 9.50284 10.1635 8.85447C10.0001 8.66542 9.97328 8.47575 9.83731 8.2867C9.6739 8.01644 9.32026 7.88071 9.10197 7.66499V7.66378Z" fill="#00678C"/>
</g>
<defs>
<clipPath id="clip0_40_135">
<rect width="40" height="40" fill="white"/>
</clipPath>
</defs>
</svg>
