<svg width="65" height="40" viewBox="0 0 65 40" fill="none" xmlns="http://www.w3.org/2000/svg">
<g clip-path="url(#clip0_40_111)">
<path d="M32.1269 40.0002C31.9124 40.0002 31.6993 39.9436 31.5112 39.8348L29.5516 38.6691C29.2589 38.5046 29.4017 38.4464 29.4982 38.4129C29.8885 38.2756 29.9677 38.2446 30.3842 38.0069C30.428 37.9818 30.4853 37.9906 30.5302 38.0172L32.0357 38.9149C32.09 38.9444 32.1672 38.9444 32.2176 38.9149L38.0876 35.5103C38.142 35.4793 38.1773 35.4158 38.1773 35.3508V28.5446C38.1773 28.4767 38.142 28.4162 38.0865 28.3822L32.2187 24.9806C32.1644 24.9481 32.0924 24.9481 32.038 24.9806L26.1715 28.3822C26.1146 28.4147 26.0784 28.4782 26.0784 28.5432V35.3494C26.0784 35.4143 26.1137 35.4763 26.1695 35.5073L27.777 36.4404C28.6498 36.8789 29.1832 36.3622 29.1832 35.8425V29.1249C29.1832 29.0289 29.2581 28.9551 29.3536 28.9551H30.0971C30.1897 28.9551 30.2661 29.0289 30.2661 29.1249V35.8454C30.2661 37.0147 29.6313 37.6865 28.5279 37.6865C28.1884 37.6865 27.921 37.6865 27.1746 37.3174L25.6347 36.4257C25.2541 36.2042 25.019 35.7908 25.019 35.3494V28.5432C25.019 28.1002 25.2541 27.6868 25.6347 27.4683L31.5107 24.0623C31.8824 23.8511 32.3761 23.8511 32.7449 24.0623L38.6135 27.4698C38.9926 27.6898 39.2292 28.1017 39.2292 28.5446V35.3508C39.2292 35.7923 38.9926 36.2042 38.6135 36.4257L32.7449 39.8317C32.5568 39.941 32.3438 39.9971 32.1263 39.9971" fill="#689F63"/>
<path d="M33.9404 35.3102C31.372 35.3102 30.8335 34.1255 30.8335 33.1319C30.8335 33.0374 30.9093 32.9621 31.0035 32.9621H31.7617C31.8454 32.9621 31.916 33.0234 31.9292 33.1065C32.0438 33.8828 32.3847 34.2743 33.9378 34.2743C35.175 34.2743 35.701 33.9935 35.701 33.3343C35.701 32.9549 35.5512 32.6729 33.6292 32.4839C32.0218 32.3244 31.0285 31.9686 31.0285 30.6768C31.0285 29.4868 32.0276 28.7781 33.7012 28.7781C35.5805 28.7781 36.5121 29.4336 36.6297 30.8421C36.6341 30.8908 36.6164 30.9381 36.5841 30.9735C36.5518 31.0075 36.5062 31.0282 36.4592 31.0282H35.6966C35.6173 31.0282 35.5482 30.9721 35.5321 30.8953C35.3484 30.0788 34.9046 29.8175 33.6983 29.8175C32.348 29.8175 32.1907 30.29 32.1907 30.6443C32.1907 31.0739 32.3759 31.1994 34.1979 31.4415C36.0022 31.6822 36.8589 32.0218 36.8589 33.2959C36.8589 34.5804 35.7921 35.3171 33.9319 35.3171M41.0818 28.099H41.2787C41.4403 28.099 41.4712 27.9853 41.4712 27.9189C41.4712 27.7446 41.3522 27.7446 41.286 27.7446H41.0833L41.0818 28.099ZM40.8423 27.5409H41.2787C41.4286 27.5409 41.7224 27.5409 41.7224 27.8775C41.7224 28.1123 41.5726 28.161 41.4829 28.1905C41.6578 28.2023 41.6695 28.3175 41.6931 28.4799C41.7048 28.5818 41.7239 28.7574 41.7592 28.8165H41.4903C41.4829 28.7574 41.4418 28.4326 41.4418 28.4149C41.4242 28.3426 41.3992 28.3071 41.3096 28.3071H41.0877V28.818H40.8423V27.5409ZM40.3177 28.1757C40.3177 28.7043 40.7424 29.1325 41.264 29.1325C41.79 29.1325 42.2147 28.6954 42.2147 28.1757C42.2147 27.6457 41.7842 27.2249 41.2625 27.2249C40.7483 27.2249 40.3163 27.6398 40.3163 28.1743M42.3969 28.1787C42.3969 28.8047 41.887 29.3155 41.2655 29.3155C40.6483 29.3155 40.1341 28.8106 40.1341 28.1787C40.1341 27.535 40.6601 27.0419 41.2655 27.0419C41.8753 27.0419 42.3954 27.5365 42.3954 28.1787" fill="#689F63"/>
<path fill-rule="evenodd" clip-rule="evenodd" d="M13.9495 13.3688C13.9495 13.0971 13.8069 12.8476 13.5736 12.7125L7.35 9.11453C7.24495 9.05252 7.12725 9.02004 7.00794 9.01561H6.94358C6.82427 9.02004 6.70657 9.05252 6.59975 9.11453L0.376449 12.7125C0.144584 12.8484 0 13.0979 0 13.3695L0.013665 23.0606C0.013665 23.195 0.0827247 23.3205 0.200273 23.3869C0.314883 23.4578 0.458879 23.4578 0.573489 23.3869L4.27332 21.2579C4.50695 21.1183 4.64948 20.8714 4.64948 20.6024V16.075C4.64948 15.8048 4.79201 15.5553 5.0249 15.421L6.60005 14.5095C6.71701 14.4415 6.84543 14.4079 6.9762 14.4079C7.10492 14.4079 7.23628 14.4412 7.35 14.5093L8.92442 15.4205C9.15746 15.5549 9.30057 15.8044 9.30057 16.0746V20.6017C9.30057 20.8704 9.44501 21.1184 9.67746 21.2572L13.3749 23.3847C13.491 23.4541 13.6355 23.4541 13.7511 23.3847C13.8651 23.3183 13.9374 23.1928 13.9374 23.0584L13.9495 13.3688ZM43.3172 18.4145C43.3172 18.482 43.2815 18.5445 43.2231 18.5778L41.0855 19.8159C41.0275 19.8494 40.9558 19.8494 40.8979 19.8159L38.76 18.5778C38.7012 18.5443 38.6659 18.4819 38.6659 18.4145V15.9348C38.6659 15.8672 38.7012 15.8048 38.7585 15.7709L40.8949 14.5307C40.9537 14.4968 41.0257 14.4968 41.0845 14.5307L43.2224 15.7709C43.2812 15.8048 43.3164 15.8672 43.3164 15.9348L43.3172 18.4145ZM43.8946 0.0478035C43.778 -0.0174535 43.636 -0.0156818 43.5208 0.0517897C43.4062 0.119704 43.3354 0.243722 43.3354 0.378074V9.97468C43.3354 10.0692 43.2854 10.1563 43.204 10.2035C43.1232 10.2508 43.0225 10.2508 42.941 10.2035L41.382 9.3013C41.1499 9.16635 40.8639 9.16635 40.6309 9.3013L34.4052 12.9115C34.1726 13.0459 34.0291 13.2954 34.0291 13.5641V20.7867C34.0291 21.0569 34.1726 21.3049 34.4052 21.4407L40.6309 25.0535C40.8633 25.1878 41.1496 25.1878 41.3828 25.0535L47.6084 21.4392C47.8406 21.3034 47.9846 21.0554 47.9846 20.7852V2.7849C47.9846 2.51088 47.8362 2.25886 47.5981 2.12495L43.8946 0.0478035ZM64.6262 15.8695C64.8575 15.7346 64.9998 15.4854 64.9998 15.2166V13.4662C64.9998 13.1969 64.8573 12.9485 64.6256 12.8129L58.4396 9.20459C58.206 9.06876 57.9195 9.06876 57.6858 9.20459L51.4616 12.8144C51.228 12.9502 51.0855 13.1983 51.0855 13.4684V20.688C51.0855 20.9597 51.231 21.2107 51.4646 21.345L57.6491 24.8869C57.8768 25.0183 58.156 25.0198 58.3867 24.8914L62.1277 22.8023C62.2452 22.7358 62.3202 22.6103 62.3202 22.4745C62.3202 22.3387 62.2482 22.2117 62.1306 22.1453L55.8682 18.534C55.7507 18.4675 55.6787 18.342 55.6787 18.2077V15.9429C55.6787 15.8077 55.7492 15.683 55.8668 15.6157L57.8151 14.4863C57.9312 14.4184 58.0737 14.4184 58.1898 14.4863L60.1396 15.6157C60.2557 15.6822 60.3277 15.8077 60.3277 15.942V17.7225C60.3277 17.8569 60.3997 17.9824 60.5158 18.0503C60.6319 18.1167 60.7759 18.1167 60.892 18.0488L64.6262 15.8695Z" fill="#333333"/>
<path fill-rule="evenodd" clip-rule="evenodd" d="M57.9719 15.5317C58.016 15.5056 58.0712 15.5056 58.1159 15.5317L59.3105 16.2241C59.3552 16.2501 59.3825 16.2979 59.3825 16.3496V17.736C59.3825 17.7876 59.3552 17.8355 59.3105 17.8614L58.1159 18.5539C58.0712 18.58 58.016 18.58 57.9719 18.5539L56.7781 17.8614C56.7325 17.8355 56.7046 17.7876 56.7046 17.736V16.3496C56.7046 16.2979 56.731 16.2501 56.7766 16.2241L57.9719 15.5317Z" fill="#689F63"/>
<mask id="mask0_40_111" style="mask-type:luminance" maskUnits="userSpaceOnUse" x="17" y="9" width="14" height="17">
<path d="M23.6162 9.24065L17.4259 12.8308C17.194 12.9652 17.0518 13.2132 17.0518 13.4813V20.6667C17.0518 20.9349 17.194 21.1828 17.4259 21.3172L23.6167 24.9101C23.8481 25.0441 24.1335 25.0441 24.3646 24.9101L30.5544 21.3172C30.7851 21.1828 30.9276 20.9348 30.9276 20.6667V13.4813C30.9276 13.2132 30.7851 12.9652 30.5529 12.8308L24.364 9.24065C24.2479 9.17377 24.1186 9.14026 23.9893 9.14026C23.86 9.14026 23.7307 9.17377 23.6146 9.24065" fill="white"/>
</mask>
<g mask="url(#mask0_40_111)">
<path d="M37.1833 12.2212L19.7399 3.63L10.7959 21.9631L28.2389 30.5547L37.1833 12.2212Z" fill="url(#paint0_linear_40_111)"/>
</g>
<mask id="mask1_40_111" style="mask-type:luminance" maskUnits="userSpaceOnUse" x="17" y="9" width="14" height="17">
<path d="M17.2051 21.1229C17.2643 21.2001 17.3383 21.267 17.4255 21.3172L22.7357 24.3991L23.6203 24.91C23.7525 24.9868 23.9033 25.0192 24.0514 25.0082C24.1008 25.0042 24.1501 24.9949 24.1983 24.9811L30.7273 12.9691C30.6773 12.9145 30.6188 12.8687 30.5533 12.8304L26.4999 10.4784L24.3573 9.23975C24.2965 9.20431 24.2305 9.17922 24.1634 9.1615L17.2051 21.1229Z" fill="white"/>
</mask>
<g mask="url(#mask1_40_111)">
<path d="M9.66309 14.7622L21.98 31.5124L38.2692 19.4198L25.9516 2.67004L9.66309 14.7622Z" fill="url(#paint1_linear_40_111)"/>
</g>
<mask id="mask2_40_111" style="mask-type:luminance" maskUnits="userSpaceOnUse" x="17" y="9" width="14" height="17">
<path d="M23.9151 9.14441C23.8112 9.15474 23.7097 9.18722 23.6161 9.24067L17.4434 12.8205L24.0995 25.0023C24.1921 24.989 24.2832 24.958 24.3655 24.9102L30.5559 21.3172C30.7469 21.2059 30.8777 21.0175 30.9173 20.804L24.1319 9.15666C24.0819 9.14677 24.0319 9.1416 23.9805 9.1416C23.9599 9.1416 23.9394 9.14263 23.9188 9.14455" fill="white"/>
</mask>
<g mask="url(#mask2_40_111)">
<path d="M17.4429 9.1416V25.0026H30.9144V9.1416H17.4429Z" fill="url(#paint2_linear_40_111)"/>
</g>
</g>
<defs>
<linearGradient id="paint0_linear_40_111" x1="28.4563" y1="7.91209" x2="19.4438" y2="26.2099" gradientUnits="userSpaceOnUse">
<stop offset="0.3" stop-color="#3E863D"/>
<stop offset="0.5" stop-color="#55934F"/>
<stop offset="0.8" stop-color="#5AAD45"/>
</linearGradient>
<linearGradient id="paint1_linear_40_111" x1="15.8953" y1="23.2333" x2="32.2402" y2="11.2141" gradientUnits="userSpaceOnUse">
<stop offset="0.57" stop-color="#3E863D"/>
<stop offset="0.72" stop-color="#619857"/>
<stop offset="1" stop-color="#76AC64"/>
</linearGradient>
<linearGradient id="paint2_linear_40_111" x1="17.4474" y1="17.0725" x2="30.9169" y2="17.0725" gradientUnits="userSpaceOnUse">
<stop offset="0.16" stop-color="#6BBF47"/>
<stop offset="0.38" stop-color="#79B461"/>
<stop offset="0.47" stop-color="#75AC64"/>
<stop offset="0.7" stop-color="#659E5A"/>
<stop offset="0.9" stop-color="#3E863D"/>
</linearGradient>
<clipPath id="clip0_40_111">
<rect width="65" height="40" fill="white"/>
</clipPath>
</defs>
</svg>
