<svg width="27" height="28" viewBox="0 0 27 28" fill="none" xmlns="http://www.w3.org/2000/svg">
<path fill-rule="evenodd" clip-rule="evenodd" d="M4.53944 5.10419C5.38544 5.7915 5.70278 5.73909 7.29145 5.63308L22.2683 4.73378C22.5859 4.73378 22.3218 4.4169 22.2159 4.36425L19.7286 2.56612C19.252 2.19608 18.617 1.77231 17.4001 1.87833L2.89794 2.93605C2.36903 2.98843 2.26341 3.25293 2.474 3.46491L4.53944 5.10419ZM5.43862 8.59455V24.3528C5.43862 25.1997 5.86181 25.5166 6.81437 25.4642L23.2739 24.5117C24.2269 24.4594 24.3331 23.8768 24.3331 23.1889V7.53634C24.3331 6.84947 24.0689 6.47906 23.4855 6.53193L6.28509 7.53634C5.65029 7.58969 5.43862 7.90719 5.43862 8.59455ZM21.6874 9.43985C21.793 9.91627 21.6874 10.3922 21.2101 10.4458L20.4171 10.6038V22.2376C19.7286 22.6076 19.0936 22.8192 18.5645 22.8192C17.7174 22.8192 17.5052 22.5546 16.8707 21.7618L11.6832 13.6181V21.4974L13.3247 21.8678C13.3247 21.8678 13.3248 22.8192 12.0004 22.8192L8.34937 23.031C8.24331 22.8192 8.34936 22.2909 8.71969 22.185L9.67243 21.9209V11.503L8.34963 11.397C8.2435 10.9206 8.50774 10.2337 9.24924 10.1804L13.1659 9.91641L18.5645 18.1661V10.8682L17.188 10.7102C17.0824 10.1278 17.5052 9.70493 18.0345 9.65247L21.6874 9.43985ZM1.68025 1.50835L16.7648 0.39747C18.6172 0.238589 19.0938 0.345096 20.2581 1.19077L25.0733 4.57513C25.8678 5.1571 26.1326 5.31554 26.1326 5.94998V24.5117C26.1326 25.6751 25.7088 26.363 24.2272 26.4683L6.70956 27.5261C5.59732 27.5791 5.068 27.4206 4.48552 26.6799L0.939579 22.0792C0.304275 21.2322 0.0400391 20.5987 0.0400391 19.8575V3.35852C0.0400391 2.40723 0.463912 1.61367 1.68025 1.50835Z" fill="white"/>
</svg>
