<svg width="46" height="40" viewBox="0 0 46 40" fill="none" xmlns="http://www.w3.org/2000/svg">
<g clip-path="url(#clip0_40_76)">
<path d="M22.9999 24.0072C25.2643 24.0072 27.0999 22.2131 27.0999 20.0001C27.0999 17.787 25.2643 15.9929 22.9999 15.9929C20.7355 15.9929 18.8999 17.787 18.8999 20.0001C18.8999 22.2131 20.7355 24.0072 22.9999 24.0072Z" fill="#61DAFB"/>
<path d="M23 28.2097C35.1503 28.2097 45 24.534 45 19.9999C45 15.4658 35.1503 11.7902 23 11.7902C10.8497 11.7902 1 15.4658 1 19.9999C1 24.534 10.8497 28.2097 23 28.2097Z" stroke="#61DAFB"/>
<path d="M15.7252 24.1048C21.8003 34.3889 29.9821 40.888 33.9998 38.621C38.0175 36.3539 36.3495 26.1792 30.2744 15.8951C24.1993 5.61097 16.0175 -0.888138 11.9998 1.37892C7.98214 3.64598 9.65006 13.8207 15.7252 24.1048Z" stroke="#61DAFB"/>
<path d="M15.7252 15.8951C9.65006 26.1792 7.98215 36.3539 11.9998 38.621C16.0175 40.888 24.1993 34.3889 30.2744 24.1048C36.3495 13.8207 38.0175 3.64595 33.9998 1.37889C29.9821 -0.888167 21.8003 5.61094 15.7252 15.8951Z" stroke="#61DAFB"/>
</g>
<defs>
<clipPath id="clip0_40_76">
<rect width="46" height="40" fill="white"/>
</clipPath>
</defs>
</svg>
