<svg width="65" height="40" viewBox="0 0 65 40" fill="none" xmlns="http://www.w3.org/2000/svg">
<g clip-path="url(#clip0_40_101)">
<mask id="mask0_40_101" style="mask-type:luminance" maskUnits="userSpaceOnUse" x="0" y="0" width="65" height="40">
<path d="M0 0H65V39.2727H0V0Z" fill="white"/>
</mask>
<g mask="url(#mask0_40_101)">
<path fill-rule="evenodd" clip-rule="evenodd" d="M32.5 0C23.8333 0 18.4167 4.36364 16.25 13.0909C19.5 8.72727 23.2917 7.09091 27.625 8.18182C30.0974 8.80364 31.8644 10.6109 33.8205 12.6097C37.0067 15.8667 40.6948 19.6364 48.75 19.6364C57.4167 19.6364 62.8333 15.2727 65 6.54545C61.75 10.9091 57.9583 12.5455 53.625 11.4545C51.1526 10.8327 49.3856 9.02545 47.4295 7.02667C44.2433 3.7697 40.5552 0 32.5 0ZM16.25 19.6364C7.58333 19.6364 2.16667 24 0 32.7273C3.25 28.3636 7.04167 26.7273 11.375 27.8182C13.8474 28.4412 15.6144 30.2473 17.5705 32.2461C20.7567 35.503 24.4448 39.2727 32.5 39.2727C41.1667 39.2727 46.5833 34.9091 48.75 26.1818C45.5 30.5455 41.7083 32.1818 37.375 31.0909C34.9026 30.4691 33.1356 28.6618 31.1795 26.663C27.9933 23.4061 24.3052 19.6364 16.25 19.6364Z" fill="#38BDF8"/>
</g>
</g>
<defs>
<clipPath id="clip0_40_101">
<rect width="65" height="40" fill="white"/>
</clipPath>
</defs>
</svg>
