<svg width="20" height="20" viewBox="0 0 20 20" fill="none" xmlns="http://www.w3.org/2000/svg">
<path d="M3.33333 0C1.49794 0 0 1.49794 0 3.33333V16.6667C0 18.5021 1.49794 20 3.33333 20H16.6667C18.5021 20 20 18.5021 20 16.6667V3.33333C20 1.49794 18.5021 0 16.6667 0H3.33333ZM3.33333 0.952381H16.6667C17.9875 0.952381 19.0476 2.01254 19.0476 3.33333V16.6667C19.0476 17.9875 17.9875 19.0476 16.6667 19.0476H3.33333C2.01254 19.0476 0.952381 17.9875 0.952381 16.6667V3.33333C0.952381 2.01254 2.01254 0.952381 3.33333 0.952381ZM4.32664 4.28571L8.71838 10.5255L4.28571 15.7143H5.47619L9.25595 11.2891L12.3698 15.7143H16.1496L11.3281 8.86347L15.2381 4.28571H14.0476L10.7906 8.09989L8.1064 4.28571H4.32664ZM6.14955 5.2381H7.60882L14.3266 14.7619H12.8674L6.14955 5.2381Z" fill="white"/>
</svg>
